<svg width="32" height="32" viewBox="0 0 32 32" xmlns="http://www.w3.org/2000/svg">
  <defs>
    <linearGradient id="grad1" x1="0%" y1="0%" x2="100%" y2="100%">
      <stop offset="0%" style="stop-color:#2563eb;stop-opacity:1" />
      <stop offset="100%" style="stop-color:#1d4ed8;stop-opacity:1" />
    </linearGradient>
  </defs>
  
  <!-- Background -->
  <rect width="32" height="32" fill="#ffffff" rx="4"/>
  
  <!-- QR Code Pattern -->
  <!-- Top Left Finder Pattern -->
  <rect x="2" y="2" width="8" height="8" fill="url(#grad1)" rx="1"/>
  <rect x="4" y="4" width="4" height="4" fill="#ffffff" rx="0.5"/>
  <rect x="5" y="5" width="2" height="2" fill="url(#grad1)" rx="0.25"/>
  
  <!-- Top Right Finder Pattern -->
  <rect x="22" y="2" width="8" height="8" fill="url(#grad1)" rx="1"/>
  <rect x="24" y="4" width="4" height="4" fill="#ffffff" rx="0.5"/>
  <rect x="25" y="5" width="2" height="2" fill="url(#grad1)" rx="0.25"/>
  
  <!-- Bottom Left Finder Pattern -->
  <rect x="2" y="22" width="8" height="8" fill="url(#grad1)" rx="1"/>
  <rect x="4" y="24" width="4" height="4" fill="#ffffff" rx="0.5"/>
  <rect x="5" y="25" width="2" height="2" fill="url(#grad1)" rx="0.25"/>
  
  <!-- Data Modules -->
  <rect x="12" y="2" width="2" height="2" fill="url(#grad1)" rx="0.25"/>
  <rect x="15" y="2" width="2" height="2" fill="url(#grad1)" rx="0.25"/>
  <rect x="18" y="2" width="2" height="2" fill="url(#grad1)" rx="0.25"/>
  
  <rect x="2" y="5" width="2" height="2" fill="url(#grad1)" rx="0.25"/>
  <rect x="5" y="5" width="2" height="2" fill="url(#grad1)" rx="0.25"/>
  <rect x="8" y="5" width="2" height="2" fill="url(#grad1)" rx="0.25"/>
  <rect x="11" y="5" width="2" height="2" fill="url(#grad1)" rx="0.25"/>
  <rect x="14" y="5" width="2" height="2" fill="url(#grad1)" rx="0.25"/>
  <rect x="17" y="5" width="2" height="2" fill="url(#grad1)" rx="0.25"/>
  <rect x="20" y="5" width="2" height="2" fill="url(#grad1)" rx="0.25"/>
  <rect x="23" y="5" width="2" height="2" fill="url(#grad1)" rx="0.25"/>
  <rect x="26" y="5" width="2" height="2" fill="url(#grad1)" rx="0.25"/>
  <rect x="29" y="5" width="2" height="2" fill="url(#grad1)" rx="0.25"/>
  
  <rect x="2" y="8" width="2" height="2" fill="url(#grad1)" rx="0.25"/>
  <rect x="5" y="8" width="2" height="2" fill="url(#grad1)" rx="0.25"/>
  <rect x="8" y="8" width="2" height="2" fill="url(#grad1)" rx="0.25"/>
  <rect x="11" y="8" width="2" height="2" fill="url(#grad1)" rx="0.25"/>
  <rect x="14" y="8" width="2" height="2" fill="url(#grad1)" rx="0.25"/>
  <rect x="17" y="8" width="2" height="2" fill="url(#grad1)" rx="0.25"/>
  <rect x="20" y="8" width="2" height="2" fill="url(#grad1)" rx="0.25"/>
  <rect x="23" y="8" width="2" height="2" fill="url(#grad1)" rx="0.25"/>
  <rect x="26" y="8" width="2" height="2" fill="url(#grad1)" rx="0.25"/>
  <rect x="29" y="8" width="2" height="2" fill="url(#grad1)" rx="0.25"/>
  
  <rect x="2" y="11" width="2" height="2" fill="url(#grad1)" rx="0.25"/>
  <rect x="5" y="11" width="2" height="2" fill="url(#grad1)" rx="0.25"/>
  <rect x="8" y="11" width="2" height="2" fill="url(#grad1)" rx="0.25"/>
  <rect x="11" y="11" width="2" height="2" fill="url(#grad1)" rx="0.25"/>
  <rect x="14" y="11" width="2" height="2" fill="url(#grad1)" rx="0.25"/>
  <rect x="17" y="11" width="2" height="2" fill="url(#grad1)" rx="0.25"/>
  <rect x="20" y="11" width="2" height="2" fill="url(#grad1)" rx="0.25"/>
  <rect x="23" y="11" width="2" height="2" fill="url(#grad1)" rx="0.25"/>
  <rect x="26" y="11" width="2" height="2" fill="url(#grad1)" rx="0.25"/>
  <rect x="29" y="11" width="2" height="2" fill="url(#grad1)" rx="0.25"/>
  
  <rect x="2" y="14" width="2" height="2" fill="url(#grad1)" rx="0.25"/>
  <rect x="5" y="14" width="2" height="2" fill="url(#grad1)" rx="0.25"/>
  <rect x="8" y="14" width="2" height="2" fill="url(#grad1)" rx="0.25"/>
  <rect x="11" y="14" width="2" height="2" fill="url(#grad1)" rx="0.25"/>
  <rect x="14" y="14" width="2" height="2" fill="url(#grad1)" rx="0.25"/>
  <rect x="17" y="14" width="2" height="2" fill="url(#grad1)" rx="0.25"/>
  <rect x="20" y="14" width="2" height="2" fill="url(#grad1)" rx="0.25"/>
  <rect x="23" y="14" width="2" height="2" fill="url(#grad1)" rx="0.25"/>
  <rect x="26" y="14" width="2" height="2" fill="url(#grad1)" rx="0.25"/>
  <rect x="29" y="14" width="2" height="2" fill="url(#grad1)" rx="0.25"/>
  
  <rect x="2" y="17" width="2" height="2" fill="url(#grad1)" rx="0.25"/>
  <rect x="5" y="17" width="2" height="2" fill="url(#grad1)" rx="0.25"/>
  <rect x="8" y="17" width="2" height="2" fill="url(#grad1)" rx="0.25"/>
  <rect x="11" y="17" width="2" height="2" fill="url(#grad1)" rx="0.25"/>
  <rect x="14" y="17" width="2" height="2" fill="url(#grad1)" rx="0.25"/>
  <rect x="17" y="17" width="2" height="2" fill="url(#grad1)" rx="0.25"/>
  <rect x="20" y="17" width="2" height="2" fill="url(#grad1)" rx="0.25"/>
  <rect x="23" y="17" width="2" height="2" fill="url(#grad1)" rx="0.25"/>
  <rect x="26" y="17" width="2" height="2" fill="url(#grad1)" rx="0.25"/>
  <rect x="29" y="17" width="2" height="2" fill="url(#grad1)" rx="0.25"/>
  
  <rect x="2" y="20" width="2" height="2" fill="url(#grad1)" rx="0.25"/>
  <rect x="5" y="20" width="2" height="2" fill="url(#grad1)" rx="0.25"/>
  <rect x="8" y="20" width="2" height="2" fill="url(#grad1)" rx="0.25"/>
  <rect x="11" y="20" width="2" height="2" fill="url(#grad1)" rx="0.25"/>
  <rect x="14" y="20" width="2" height="2" fill="url(#grad1)" rx="0.25"/>
  <rect x="17" y="20" width="2" height="2" fill="url(#grad1)" rx="0.25"/>
  <rect x="20" y="20" width="2" height="2" fill="url(#grad1)" rx="0.25"/>
  <rect x="23" y="20" width="2" height="2" fill="url(#grad1)" rx="0.25"/>
  <rect x="26" y="20" width="2" height="2" fill="url(#grad1)" rx="0.25"/>
  <rect x="29" y="20" width="2" height="2" fill="url(#grad1)" rx="0.25"/>
  
  <rect x="2" y="23" width="2" height="2" fill="url(#grad1)" rx="0.25"/>
  <rect x="5" y="23" width="2" height="2" fill="url(#grad1)" rx="0.25"/>
  <rect x="8" y="23" width="2" height="2" fill="url(#grad1)" rx="0.25"/>
  <rect x="11" y="23" width="2" height="2" fill="url(#grad1)" rx="0.25"/>
  <rect x="14" y="23" width="2" height="2" fill="url(#grad1)" rx="0.25"/>
  <rect x="17" y="23" width="2" height="2" fill="url(#grad1)" rx="0.25"/>
  <rect x="20" y="23" width="2" height="2" fill="url(#grad1)" rx="0.25"/>
  <rect x="23" y="23" width="2" height="2" fill="url(#grad1)" rx="0.25"/>
  <rect x="26" y="23" width="2" height="2" fill="url(#grad1)" rx="0.25"/>
  <rect x="29" y="23" width="2" height="2" fill="url(#grad1)" rx="0.25"/>
  
  <rect x="2" y="26" width="2" height="2" fill="url(#grad1)" rx="0.25"/>
  <rect x="5" y="26" width="2" height="2" fill="url(#grad1)" rx="0.25"/>
  <rect x="8" y="26" width="2" height="2" fill="url(#grad1)" rx="0.25"/>
  <rect x="11" y="26" width="2" height="2" fill="url(#grad1)" rx="0.25"/>
  <rect x="14" y="26" width="2" height="2" fill="url(#grad1)" rx="0.25"/>
  <rect x="17" y="26" width="2" height="2" fill="url(#grad1)" rx="0.25"/>
  <rect x="20" y="26" width="2" height="2" fill="url(#grad1)" rx="0.25"/>
  <rect x="23" y="26" width="2" height="2" fill="url(#grad1)" rx="0.25"/>
  <rect x="26" y="26" width="2" height="2" fill="url(#grad1)" rx="0.25"/>
  <rect x="29" y="26" width="2" height="2" fill="url(#grad1)" rx="0.25"/>
  
  <rect x="2" y="29" width="2" height="2" fill="url(#grad1)" rx="0.25"/>
  <rect x="5" y="29" width="2" height="2" fill="url(#grad1)" rx="0.25"/>
  <rect x="8" y="29" width="2" height="2" fill="url(#grad1)" rx="0.25"/>
  <rect x="11" y="29" width="2" height="2" fill="url(#grad1)" rx="0.25"/>
  <rect x="14" y="29" width="2" height="2" fill="url(#grad1)" rx="0.25"/>
  <rect x="17" y="29" width="2" height="2" fill="url(#grad1)" rx="0.25"/>
  <rect x="20" y="29" width="2" height="2" fill="url(#grad1)" rx="0.25"/>
  <rect x="23" y="29" width="2" height="2" fill="url(#grad1)" rx="0.25"/>
  <rect x="26" y="29" width="2" height="2" fill="url(#grad1)" rx="0.25"/>
  <rect x="29" y="29" width="2" height="2" fill="url(#grad1)" rx="0.25"/>
</svg>
