<svg width="512" height="512" viewBox="0 0 512 512" xmlns="http://www.w3.org/2000/svg">
  <defs>
    <linearGradient id="grad1" x1="0%" y1="0%" x2="100%" y2="100%">
      <stop offset="0%" style="stop-color:#2563eb;stop-opacity:1" />
      <stop offset="100%" style="stop-color:#1d4ed8;stop-opacity:1" />
    </linearGradient>
  </defs>
  
  <!-- Background -->
  <rect width="512" height="512" fill="#ffffff" rx="64"/>
  
  <!-- QR Code Pattern -->
  <!-- Top Left Finder Pattern -->
  <rect x="64" y="64" width="80" height="80" fill="url(#grad1)" rx="8"/>
  <rect x="80" y="80" width="48" height="48" fill="#ffffff" rx="4"/>
  <rect x="96" y="96" width="16" height="16" fill="url(#grad1)" rx="2"/>
  
  <!-- Top Right Finder Pattern -->
  <rect x="368" y="64" width="80" height="80" fill="url(#grad1)" rx="8"/>
  <rect x="384" y="80" width="48" height="48" fill="#ffffff" rx="4"/>
  <rect x="400" y="96" width="16" height="16" fill="url(#grad1)" rx="2"/>
  
  <!-- Bottom Left Finder Pattern -->
  <rect x="64" y="368" width="80" height="80" fill="url(#grad1)" rx="8"/>
  <rect x="80" y="384" width="48" height="48" fill="#ffffff" rx="4"/>
  <rect x="96" y="400" width="16" height="16" fill="url(#grad1)" rx="2"/>
  
  <!-- Data Modules -->
  <rect x="160" y="64" width="16" height="16" fill="url(#grad1)" rx="2"/>
  <rect x="192" y="64" width="16" height="16" fill="url(#grad1)" rx="2"/>
  <rect x="224" y="64" width="16" height="16" fill="url(#grad1)" rx="2"/>
  <rect x="256" y="64" width="16" height="16" fill="url(#grad1)" rx="2"/>
  <rect x="288" y="64" width="16" height="16" fill="url(#grad1)" rx="2"/>
  <rect x="320" y="64" width="16" height="16" fill="url(#grad1)" rx="2"/>
  
  <rect x="64" y="96" width="16" height="16" fill="url(#grad1)" rx="2"/>
  <rect x="96" y="96" width="16" height="16" fill="url(#grad1)" rx="2"/>
  <rect x="128" y="96" width="16" height="16" fill="url(#grad1)" rx="2"/>
  <rect x="160" y="96" width="16" height="16" fill="url(#grad1)" rx="2"/>
  <rect x="192" y="96" width="16" height="16" fill="url(#grad1)" rx="2"/>
  <rect x="224" y="96" width="16" height="16" fill="url(#grad1)" rx="2"/>
  <rect x="256" y="96" width="16" height="16" fill="url(#grad1)" rx="2"/>
  <rect x="288" y="96" width="16" height="16" fill="url(#grad1)" rx="2"/>
  <rect x="320" y="96" width="16" height="16" fill="url(#grad1)" rx="2"/>
  <rect x="352" y="96" width="16" height="16" fill="url(#grad1)" rx="2"/>
  <rect x="384" y="96" width="16" height="16" fill="url(#grad1)" rx="2"/>
  <rect x="416" y="96" width="16" height="16" fill="url(#grad1)" rx="2"/>
  
  <rect x="64" y="128" width="16" height="16" fill="url(#grad1)" rx="2"/>
  <rect x="96" y="128" width="16" height="16" fill="url(#grad1)" rx="2"/>
  <rect x="128" y="128" width="16" height="16" fill="url(#grad1)" rx="2"/>
  <rect x="160" y="128" width="16" height="16" fill="url(#grad1)" rx="2"/>
  <rect x="192" y="128" width="16" height="16" fill="url(#grad1)" rx="2"/>
  <rect x="224" y="128" width="16" height="16" fill="url(#grad1)" rx="2"/>
  <rect x="256" y="128" width="16" height="16" fill="url(#grad1)" rx="2"/>
  <rect x="288" y="128" width="16" height="16" fill="url(#grad1)" rx="2"/>
  <rect x="320" y="128" width="16" height="16" fill="url(#grad1)" rx="2"/>
  <rect x="352" y="128" width="16" height="16" fill="url(#grad1)" rx="2"/>
  <rect x="384" y="128" width="16" height="16" fill="url(#grad1)" rx="2"/>
  <rect x="416" y="128" width="16" height="16" fill="url(#grad1)" rx="2"/>
  
  <rect x="64" y="160" width="16" height="16" fill="url(#grad1)" rx="2"/>
  <rect x="96" y="160" width="16" height="16" fill="url(#grad1)" rx="2"/>
  <rect x="128" y="160" width="16" height="16" fill="url(#grad1)" rx="2"/>
  <rect x="160" y="160" width="16" height="16" fill="url(#grad1)" rx="2"/>
  <rect x="192" y="160" width="16" height="16" fill="url(#grad1)" rx="2"/>
  <rect x="224" y="160" width="16" height="16" fill="url(#grad1)" rx="2"/>
  <rect x="256" y="160" width="16" height="16" fill="url(#grad1)" rx="2"/>
  <rect x="288" y="160" width="16" height="16" fill="url(#grad1)" rx="2"/>
  <rect x="320" y="160" width="16" height="16" fill="url(#grad1)" rx="2"/>
  <rect x="352" y="160" width="16" height="16" fill="url(#grad1)" rx="2"/>
  <rect x="384" y="160" width="16" height="16" fill="url(#grad1)" rx="2"/>
  <rect x="416" y="160" width="16" height="16" fill="url(#grad1)" rx="2"/>
  
  <!-- More data modules for realistic QR pattern -->
  <rect x="64" y="192" width="16" height="16" fill="url(#grad1)" rx="2"/>
  <rect x="96" y="192" width="16" height="16" fill="url(#grad1)" rx="2"/>
  <rect x="128" y="192" width="16" height="16" fill="url(#grad1)" rx="2"/>
  <rect x="160" y="192" width="16" height="16" fill="url(#grad1)" rx="2"/>
  <rect x="192" y="192" width="16" height="16" fill="url(#grad1)" rx="2"/>
  <rect x="224" y="192" width="16" height="16" fill="url(#grad1)" rx="2"/>
  <rect x="256" y="192" width="16" height="16" fill="url(#grad1)" rx="2"/>
  <rect x="288" y="192" width="16" height="16" fill="url(#grad1)" rx="2"/>
  <rect x="320" y="192" width="16" height="16" fill="url(#grad1)" rx="2"/>
  <rect x="352" y="192" width="16" height="16" fill="url(#grad1)" rx="2"/>
  <rect x="384" y="192" width="16" height="16" fill="url(#grad1)" rx="2"/>
  <rect x="416" y="192" width="16" height="16" fill="url(#grad1)" rx="2"/>
  
  <!-- Additional scattered modules -->
  <rect x="176" y="224" width="16" height="16" fill="url(#grad1)" rx="2"/>
  <rect x="208" y="224" width="16" height="16" fill="url(#grad1)" rx="2"/>
  <rect x="240" y="224" width="16" height="16" fill="url(#grad1)" rx="2"/>
  <rect x="272" y="224" width="16" height="16" fill="url(#grad1)" rx="2"/>
  <rect x="304" y="224" width="16" height="16" fill="url(#grad1)" rx="2"/>
  <rect x="336" y="224" width="16" height="16" fill="url(#grad1)" rx="2"/>
  
  <rect x="160" y="256" width="16" height="16" fill="url(#grad1)" rx="2"/>
  <rect x="192" y="256" width="16" height="16" fill="url(#grad1)" rx="2"/>
  <rect x="224" y="256" width="16" height="16" fill="url(#grad1)" rx="2"/>
  <rect x="256" y="256" width="16" height="16" fill="url(#grad1)" rx="2"/>
  <rect x="288" y="256" width="16" height="16" fill="url(#grad1)" rx="2"/>
  <rect x="320" y="256" width="16" height="16" fill="url(#grad1)" rx="2"/>
  <rect x="352" y="256" width="16" height="16" fill="url(#grad1)" rx="2"/>
  
  <rect x="176" y="288" width="16" height="16" fill="url(#grad1)" rx="2"/>
  <rect x="208" y="288" width="16" height="16" fill="url(#grad1)" rx="2"/>
  <rect x="240" y="288" width="16" height="16" fill="url(#grad1)" rx="2"/>
  <rect x="272" y="288" width="16" height="16" fill="url(#grad1)" rx="2"/>
  <rect x="304" y="288" width="16" height="16" fill="url(#grad1)" rx="2"/>
  <rect x="336" y="288" width="16" height="16" fill="url(#grad1)" rx="2"/>
  
  <rect x="160" y="320" width="16" height="16" fill="url(#grad1)" rx="2"/>
  <rect x="192" y="320" width="16" height="16" fill="url(#grad1)" rx="2"/>
  <rect x="224" y="320" width="16" height="16" fill="url(#grad1)" rx="2"/>
  <rect x="256" y="320" width="16" height="16" fill="url(#grad1)" rx="2"/>
  <rect x="288" y="320" width="16" height="16" fill="url(#grad1)" rx="2"/>
  <rect x="320" y="320" width="16" height="16" fill="url(#grad1)" rx="2"/>
  <rect x="352" y="320" width="16" height="16" fill="url(#grad1)" rx="2"/>
  
  <!-- Bottom area modules -->
  <rect x="64" y="352" width="16" height="16" fill="url(#grad1)" rx="2"/>
  <rect x="96" y="352" width="16" height="16" fill="url(#grad1)" rx="2"/>
  <rect x="128" y="352" width="16" height="16" fill="url(#grad1)" rx="2"/>
  <rect x="160" y="352" width="16" height="16" fill="url(#grad1)" rx="2"/>
  <rect x="192" y="352" width="16" height="16" fill="url(#grad1)" rx="2"/>
  <rect x="224" y="352" width="16" height="16" fill="url(#grad1)" rx="2"/>
  <rect x="256" y="352" width="16" height="16" fill="url(#grad1)" rx="2"/>
  <rect x="288" y="352" width="16" height="16" fill="url(#grad1)" rx="2"/>
  <rect x="320" y="352" width="16" height="16" fill="url(#grad1)" rx="2"/>
  <rect x="352" y="352" width="16" height="16" fill="url(#grad1)" rx="2"/>
  <rect x="384" y="352" width="16" height="16" fill="url(#grad1)" rx="2"/>
  <rect x="416" y="352" width="16" height="16" fill="url(#grad1)" rx="2"/>
  
  <!-- Right side modules -->
  <rect x="368" y="160" width="16" height="16" fill="url(#grad1)" rx="2"/>
  <rect x="400" y="160" width="16" height="16" fill="url(#grad1)" rx="2"/>
  <rect x="432" y="160" width="16" height="16" fill="url(#grad1)" rx="2"/>
  
  <rect x="368" y="192" width="16" height="16" fill="url(#grad1)" rx="2"/>
  <rect x="400" y="192" width="16" height="16" fill="url(#grad1)" rx="2"/>
  <rect x="432" y="192" width="16" height="16" fill="url(#grad1)" rx="2"/>
  
  <rect x="368" y="224" width="16" height="16" fill="url(#grad1)" rx="2"/>
  <rect x="400" y="224" width="16" height="16" fill="url(#grad1)" rx="2"/>
  <rect x="432" y="224" width="16" height="16" fill="url(#grad1)" rx="2"/>
  
  <rect x="368" y="256" width="16" height="16" fill="url(#grad1)" rx="2"/>
  <rect x="400" y="256" width="16" height="16" fill="url(#grad1)" rx="2"/>
  <rect x="432" y="256" width="16" height="16" fill="url(#grad1)" rx="2"/>
  
  <rect x="368" y="288" width="16" height="16" fill="url(#grad1)" rx="2"/>
  <rect x="400" y="288" width="16" height="16" fill="url(#grad1)" rx="2"/>
  <rect x="432" y="288" width="16" height="16" fill="url(#grad1)" rx="2"/>
  
  <rect x="368" y="320" width="16" height="16" fill="url(#grad1)" rx="2"/>
  <rect x="400" y="320" width="16" height="16" fill="url(#grad1)" rx="2"/>
  <rect x="432" y="320" width="16" height="16" fill="url(#grad1)" rx="2"/>
  
  <!-- Brand Text -->
  <text x="256" y="480" font-family="Arial, sans-serif" font-size="24" font-weight="bold" text-anchor="middle" fill="url(#grad1)">QR Generator Pro</text>
</svg>
